<svg xmlns="http://www.w3.org/2000/svg" xmlns:xlink="http://www.w3.org/1999/xlink" id="Camada_1" x="0px" y="0px" viewBox="0 0 150 150" style="enable-background:new 0 0 150 150;" xml:space="preserve"><style type="text/css">	.st0{fill:none;stroke:#A01D22;stroke-width:2.8346;stroke-linecap:round;stroke-linejoin:round;stroke-miterlimit:10;}</style><g>	<path class="st0" d="M99.9,27.8"></path>	<rect x="28.5" y="112.4" class="st0" width="93.3" height="8.7"></rect>	<path class="st0" d="M79.2,77.9l-14.3-1.4c-0.3,3-2.8,5.3-5.8,5.3s-5.5-2.3-5.8-5.3L39,77.9c-6,0.6-10.6,5.6-10.6,11.6v22.9h56.8  V99.3l4.4-4.4v-5.4C89.7,83.5,85.1,78.4,79.2,77.9z M57.5,101.7H45.8V93h11.7C57.5,93,57.5,101.7,57.5,101.7z"></path>	<line class="st0" x1="38.7" y1="112.4" x2="38.7" y2="96.4"></line>	<line class="st0" x1="79.5" y1="112.4" x2="79.5" y2="96.4"></line>	<line class="st0" x1="53.3" y1="70.4" x2="53.3" y2="70.4"></line>	<path class="st0" d="M64.9,70.4V76c0,0.2,0,0.4,0,0.6c-0.3,3-2.8,5.3-5.8,5.3s-5.5-2.3-5.8-5.3c0-0.2,0-0.4,0-0.6v-5.6  c1.8,0.8,3.8,1.2,5.8,1.2C61.2,71.6,63.1,71.2,64.9,70.4z"></path>	<line class="st0" x1="64.9" y1="70.4" x2="64.9" y2="70.4"></line>	<path class="st0" d="M73.7,48.3V57c0,6-3.6,11.1-8.7,13.4c-1.8,0.8-3.8,1.2-5.8,1.2c-2.1,0-4-0.4-5.8-1.2  c-5.1-2.2-8.7-7.4-8.7-13.4v-8.7l5.8-4.4c7.3,7.3,19,0,19,0L73.7,48.3z"></path>	<path class="st0" d="M73.7,48.3l-4.4-4.4c0,0-11.7,7.3-19,0l-5.8,4.4c-6.6-2.6-6.5-5.9-5.6-8.1c0.5-1.1,1.3-2.1,2.3-2.9  c0.9-0.7,1.7-1.3,2.5-1.7c1.6-4.2,5.7-7.7,15.4-7.7C82.5,27.8,73.7,48.3,73.7,48.3z"></path>	<path class="st0" d="M43.7,35.6c5.5-2.7,9.6,1,11,3.9"></path>	<path class="st0" d="M78,52.6c0,1.2-0.5,2.3-1.3,3.1S74.8,57,73.6,57v-7.3h1.5C76.7,49.7,78,51,78,52.6z"></path>	<path class="st0" d="M44.5,49.7V57c-2.4,0-4.4-2-4.4-4.4c0-0.8,0.3-1.5,0.9-2.1c0.5-0.5,1.3-0.9,2.1-0.9L44.5,49.7L44.5,49.7z"></path>	<rect x="45.8" y="92.9" class="st0" width="11.7" height="8.7"></rect>	<line class="st0" x1="51.6" y1="92.9" x2="51.6" y2="90"></line>	<rect x="97" y="94.9" class="st0" width="24.8" height="17.5"></rect>	<path class="st0" d="M121.8,67.2v17.5h-9.5v-6.5c0-0.4-0.4-0.8-0.8-0.8h-4.2c-0.4,0-0.8,0.4-0.8,0.8v6.5H97V67.2H121.8z"></path>	<path class="st0" d="M112.3,78.2v16.7h-5.8V78.2c0-0.4,0.4-0.8,0.8-0.8h4.2C112,77.4,112.3,77.8,112.3,78.2z"></path>	<polygon class="st0" points="97,94.9 97,112.4 85.3,112.4 85.3,99.3 89.7,94.9  "></polygon>	<path class="st0" d="M85.3,42.4"></path></g></svg>