<svg xmlns="http://www.w3.org/2000/svg" xmlns:xlink="http://www.w3.org/1999/xlink" id="Camada_1" x="0px" y="0px" viewBox="0 0 150 150" style="enable-background:new 0 0 150 150;" xml:space="preserve"><style type="text/css">	.st0{fill:#A01D22;stroke:#311515;stroke-width:113.3927;stroke-linecap:round;stroke-linejoin:round;stroke-miterlimit:10;}	.st1{fill:#A01D22;}</style><g>	<g>		<path class="st0" d="M88.3,38.7"></path>	</g></g><path class="st1" d="M121.7,67h-7.5v-9.3c0-0.5-0.2-1-0.5-1.3l-3.8-3.8c0.3-0.7,0.6-1.5,0.6-2.4c0-3.1-2.5-5.6-5.6-5.6 s-5.6,2.5-5.6,5.6s2.5,5.6,5.6,5.6c0.9,0,1.7-0.2,2.4-0.6l3.2,3.2V67H95.6V53.9c0-0.8-0.6-1.6-1.4-1.8L82,48.6l-0.7-1.9 c1.8-1.4,3-3.5,3-5.9v-7.5c0-4.1-3.4-7.5-7.5-7.5h-3.7c-4.1,0-7.5,3.4-7.5,7.5v7.5c0,2.4,1.2,4.6,3,5.9l-0.7,1.9l-12.1,3.5 c-0.8,0.2-1.4,1-1.4,1.8V67H39.5v-8.6l3.2-3.2c0.7,0.3,1.5,0.6,2.4,0.6c3.1,0,5.6-2.5,5.6-5.6s-2.5-5.6-5.6-5.6s-5.6,2.5-5.6,5.6 c0,0.9,0.2,1.7,0.6,2.4l-3.8,3.8c-0.4,0.4-0.5,0.8-0.5,1.3V67h-7.5c-1,0-1.9,0.8-1.9,1.9v7.5c0,1,0.8,1.9,1.9,1.9h7.5v43 c0,1,0.8,1.9,1.9,1.9h74.7c1,0,1.9-0.8,1.9-1.9v-43h7.5c1,0,1.9-0.8,1.9-1.9v-7.5C123.6,67.8,122.8,67,121.7,67z M103.1,50.2 c0-1,0.8-1.9,1.9-1.9c1,0,1.9,0.8,1.9,1.9c0,1-0.8,1.9-1.9,1.9C103.9,52,103.1,51.2,103.1,50.2z M45.1,48.3c1,0,1.9,0.8,1.9,1.9 c0,1-0.8,1.9-1.9,1.9c-1,0-1.9-0.8-1.9-1.9C43.3,49.1,44.1,48.3,45.1,48.3z M69.4,33.4c0-2.1,1.7-3.7,3.7-3.7h3.7 c2.1,0,3.7,1.7,3.7,3.7v7.5c0,2.1-1.7,3.7-3.7,3.7h-3.7c-2,0-3.7-1.6-3.7-3.7V33.4z M76.9,48.3c0.4,0,0.7,0,1.1-0.1l0.8,2.2 c-0.1,1.9-1.7,3.5-3.7,3.5s-3.6-1.5-3.7-3.5l0.8-2.2c0.3,0,0.7,0.1,1.1,0.1H76.9z M58.2,55.3l9.7-2.8c1,3,3.8,5.1,7.1,5.1 c3.3,0,6.1-2.1,7.1-5.1l9.7,2.8V67h-5.6v-5.6h-3.7V67H67.6v-5.6h-3.8V67h-5.6V55.3z M110.5,119.3h-71V78.2h71V119.3z M119.9,74.5 c-9.2,0-80.4,0-89.7,0v-3.7c33.4,0,57.3,0,89.7,0V74.5z"></path></svg>