<svg xmlns="http://www.w3.org/2000/svg" xmlns:xlink="http://www.w3.org/1999/xlink" id="Camada_1" x="0px" y="0px" viewBox="0 0 150 150" style="enable-background:new 0 0 150 150;" xml:space="preserve"><style type="text/css">	.st0{fill:#A01F23;}</style><g>	<g>		<path class="st0" d="M98.3,120.4H52c-1.1,0-2-0.9-2-2c0-5.6,4.1-8.9,10.9-8.9h28.5c6.8,0,10.9,3.3,10.9,8.9   C100.3,119.5,99.4,120.4,98.3,120.4z M54.5,116.3h41.3c-0.8-1.8-3-2.7-6.4-2.7H60.9C57.5,113.6,55.3,114.5,54.5,116.3z"></path>	</g>	<g>		<path class="st0" d="M89.5,113.6H60.8c-1.1,0-2-0.9-2-2v-9.2c0-1.1,0.9-2,2-2h28.7c1.1,0,2,0.9,2,2v9.2   C91.5,112.7,90.6,113.6,89.5,113.6z M62.8,109.5h24.6v-5.1H62.8V109.5z"></path>	</g>	<g>		<path class="st0" d="M119.6,104.4h-89c-3.7,0-6.7-3-6.7-6.7V35.3c0-3.7,3-6.7,6.7-6.7h89c3.7,0,6.7,3,6.7,6.7v62.4   C126.3,101.4,123.3,104.4,119.6,104.4z M30.6,32.7c-1.4,0-2.6,1.2-2.6,2.6v62.4c0,1.4,1.2,2.6,2.6,2.6h89c1.4,0,2.6-1.2,2.6-2.6   V35.3c0-1.4-1.2-2.6-2.6-2.6C119.6,32.7,30.6,32.7,30.6,32.7z"></path>	</g>	<g>		<path class="st0" d="M124.3,87.8H26c-1.1,0-2-0.9-2-2s0.9-2,2-2h98.3c1.1,0,2,0.9,2,2C126.3,86.8,125.4,87.8,124.3,87.8z"></path>	</g>	<g>		<path class="st0" d="M81.3,96.1H69c-1.1,0-2-0.9-2-2s0.9-2,2-2h12.3c1.1,0,2,0.9,2,2S82.4,96.1,81.3,96.1z"></path>	</g></g></svg>