<svg xmlns="http://www.w3.org/2000/svg" xmlns:xlink="http://www.w3.org/1999/xlink" id="Camada_1" x="0px" y="0px" viewBox="0 0 150 150" style="enable-background:new 0 0 150 150;" xml:space="preserve"><style type="text/css">	.st0{fill:#A01D22;stroke:#A01D22;stroke-width:1.4173;stroke-miterlimit:10;}</style><g id="XMLID_00000075144217035634955900000012689292935633227707_">	<g id="XMLID_00000022541070611648679210000016650682646541319556_">		<path id="XMLID_00000100363570777218091740000006716471755395662998_" class="st0" d="M108.7,111.1H37.1c-0.5,0-0.8-0.4-0.8-0.8   c0-1.6,0.3-9.7,6.7-15.3c0.6-0.6,1.3-1.1,2-1.6c1-1.6,2.2-3.7,3.5-5.8c0.6-1,1.2-2,1.7-2.9c0.2-0.3,0.4-0.4,0.7-0.4h34.4   c0.3,0,0.6,0.1,0.7,0.4c0.2,0.2,0.2,0.5,0.1,0.8c-1.8,3.8-3,9.7-3,14c0,4.6,1.8,6.1,7.3,6.1h11.2c2.7,0,5.8-0.4,7.7-5.4   c2.1-5.7,3.1-13.2,2.7-20.1c-0.2-4-1.3-10.5-3-18.7c-0.6-2.6,0.6-5.4,2.9-6.9c4-2.6,7.9-2.9,11.6-2.9c0.5,0,0.8,0.4,0.8,0.8v11.9   c0,0.5-0.4,0.8-0.8,0.8h-6.7c3,5.9,6.4,13.6,9.4,21.5c0.1,0.3,0.1,0.6-0.1,0.8c-1.1,1.6-2.3,3.2-3.4,4.8   c-4.7,6.7-9.2,12.9-13,18.5C109.3,110.9,109,111.1,108.7,111.1z M77.3,109.4h31c3.7-5.5,8.1-11.7,12.8-18.2c1-1.5,2.1-2.9,3.1-4.4   c-3.1-8.2-6.6-16.2-9.8-22.1c-0.1-0.3-0.1-0.6,0-0.8c0.2-0.3,0.4-0.4,0.7-0.4h7.3V53.3c-3,0-6.4,0.4-9.9,2.6   c-1.7,1.1-2.5,3.1-2.1,5.1c1.2,5.8,2.7,13.8,3,19c0.4,7.1-0.6,14.9-2.8,20.8c-2.4,6.5-7,6.5-9.2,6.5H90.3c-5.4,0-8.9-1.3-8.9-7.8   c0-4.2,1.1-9.6,2.7-13.5H51.4c-0.5,0.8-1,1.6-1.5,2.5c-0.7,1.1-1.4,2.3-2,3.4c4.6-2,10.3-2.6,17.1-1.8c4.6,0.6,8.2,3.1,10.3,7.4   C77.4,101.6,77.7,106.9,77.3,109.4z M37.9,109.4h37.8c0.3-1.7,0.3-7.6-2.3-12c-1.9-3.3-4.8-5.2-8.6-5.7c-7.8-1-14,0-18.6,2.9l0,0   l0,0c-0.8,0.5-1.5,1-2.1,1.6C38.9,100.7,38.1,106.9,37.9,109.4z"></path>	</g>	<g id="XMLID_00000137813220723758592400000012556461249717060270_">		<g id="XMLID_00000142855299577422009540000000766343957342363829_">			<path id="XMLID_00000155857135592426858610000017247931982881296566_" class="st0" d="M112.7,113.7c-0.3,0-0.5-0.1-0.7-0.4    c-1.1-1.8-1.8-3.7-2.1-5.8l1.7-0.2c0.2,1.5,0.7,3,1.5,4.4l22.2-14c-3-4.1-8.2-6.2-13.3-5.2l-0.3-1.6c6-1.2,12.2,1.4,15.5,6.6    c0.2,0.4,0.1,0.9-0.3,1.2l-23.7,14.9C113,113.7,112.8,113.7,112.7,113.7z"></path>		</g>	</g>	<g id="XMLID_00000178899816054214669440000010601093963684554400_">		<path id="XMLID_00000032615111688732430980000012333771766906885799_" class="st0" d="M126.5,121.1c-5.8,0-10.8-4.1-11.8-9.8   l1.6-0.3c0.9,4.9,5.2,8.5,10.2,8.5c5.7,0,10.4-4.7,10.4-10.4c0-3.3-1.6-6.4-4.3-8.4l1-1.3c3.1,2.3,4.9,5.9,4.9,9.7   C138.6,115.7,133.2,121.1,126.5,121.1z"></path>	</g>	<g id="XMLID_00000111870004078911575270000004721662359928543654_">		<path id="XMLID_00000131346785960798336350000015466863528629336488_" class="st0" d="M126.5,115.3c-3.4,0-6.3-2.8-6.3-6.3   c0-0.6,0.1-1.3,0.3-1.9l1.6,0.5c-0.1,0.4-0.2,0.9-0.2,1.4c0,2.5,2.1,4.6,4.6,4.6s4.6-2.1,4.6-4.6c0-2.2-1.5-4.1-3.7-4.5l0.3-1.6   c2.9,0.6,5,3.2,5,6.1C132.8,112.5,130,115.3,126.5,115.3z"></path>	</g>	<g id="XMLID_00000103239649630410503240000009254840420642278830_">		<path id="XMLID_00000153686605493783054110000011070018845048352659_" class="st0" d="M56.5,121.1c-6.3,0-11.6-4.5-12.7-10.7   l1.6-0.3c0.9,5.4,5.5,9.3,11,9.3s10.1-3.9,11-9.3l1.6,0.3C68.2,116.6,62.8,121.1,56.5,121.1z"></path>	</g>	<g id="XMLID_00000147938837948412076350000010801883458621339563_">		<path id="XMLID_00000109025170927051379950000008076485206848058765_" class="st0" d="M56.5,114.9c-2.8,0-5.3-1.7-6.2-4.3l1.6-0.6   c0.7,1.9,2.6,3.2,4.7,3.2c2.1,0,3.9-1.3,4.7-3.2l1.6,0.6C61.8,113.1,59.3,114.9,56.5,114.9z"></path>	</g>	<g id="XMLID_00000165199552268826137240000004226377315766141624_">		<path id="XMLID_00000073717989604604069400000006563773524003481000_" class="st0" d="M67,79.8H37.8c-0.5,0-0.8-0.4-0.8-0.8V58   c0-2.7,2.2-4.8,4.8-4.8H63c2.7,0,4.8,2.2,4.8,4.8v20.9C67.8,79.4,67.5,79.8,67,79.8z M38.7,78.1h27.5V58c0-1.7-1.4-3.1-3.1-3.1   H41.8c-1.7,0-3.1,1.4-3.1,3.1V78.1z"></path>	</g>	<g id="XMLID_00000006689282729665727560000002931148806250395790_">		<rect id="XMLID_00000111906315904679298090000010677923235623522734_" x="37.8" y="58.9" class="st0" width="29.2" height="1.7"></rect>	</g>	<g id="XMLID_00000157996901751994791640000010565015727991830691_">		<path id="XMLID_00000005963053268096717530000002129932054352062648_" class="st0" d="M98.6,104.5c-0.1,0-0.2,0-0.3,0   c-2.4-0.1-4.3-2.2-4.2-4.6l0.6-17.8L77,79.7c-0.4-0.1-1.6-0.3-2.2-0.7c-2.7-1.2-4.2-4-3.7-6.8L73,52.9c0.4-4.8,1.9-7.9,4.9-10.2   l1,1.3c-2.6,2-3.9,4.8-4.3,9l-1.8,19.5c0,0,0,0,0,0.1c-0.4,2.1,0.8,4.2,2.8,5.1c0,0,0.1,0,0.1,0.1c0.2,0.1,1.1,0.4,1.6,0.5   l18.4,2.5c0.4,0.1,0.7,0.4,0.7,0.9L95.8,100c-0.1,1.5,1.1,2.8,2.6,2.9c0.7,0,1.5-0.2,2-0.7c0.6-0.5,0.9-1.2,0.9-1.9l1.2-20.3   c0.1-2.2-1.4-4.2-3.5-4.6l-15.9-3c-0.4-0.1-0.7-0.5-0.7-0.9c0.2-2.2,0.5-5.2,0.8-8.2c0.3-3.2,0.7-6.2,0.8-7.9   c0-0.3,0.2-0.6,0.5-0.7s0.6-0.1,0.9,0.2l6.5,5.9l12,2.3c0.5,0.1,1,0,1.4-0.3s0.7-0.7,0.8-1.2c0.2-1-0.5-2-1.5-2.2l-11-2.3   c-0.2,0-0.3-0.1-0.5-0.3L82.8,45l1.2-1.1l10.2,11.4l10.7,2.2c1.9,0.4,3.1,2.2,2.8,4.1c-0.2,0.9-0.7,1.8-1.5,2.3   c-0.8,0.5-1.7,0.8-2.7,0.6l-12.3-2.3c-0.2,0-0.3-0.1-0.4-0.2l-5.4-4.9c-0.2,1.7-0.4,4-0.7,6.3c-0.3,2.6-0.6,5.4-0.8,7.4L99,73.6   c3,0.6,5,3.4,4.9,6.4l-1.2,20.3c-0.1,1.2-0.6,2.3-1.5,3.1C100.7,104.1,99.6,104.5,98.6,104.5z"></path>	</g>	<g id="XMLID_00000158723973875576126130000016266902955819098300_">		<path id="XMLID_00000112618848810036586070000001539723757057012383_" class="st0" d="M88.1,46.5c-0.1,0-0.1,0-0.2,0   c-1.2-0.3-4.6-1.1-8-1.8c-1.6-0.3-3.1-0.7-4.4-1c-0.3-0.1-0.5-0.3-0.6-0.5c-1.1-3-2.1-6.4-1.1-9.5c1.3-4.3,5.2-6.4,10-5.7   c3.7,0.6,7.9,2.9,7,10.8c-0.3,2.3-0.9,4.3-1.9,7C88.8,46.2,88.5,46.5,88.1,46.5z M76.4,42.2c1.1,0.3,2.5,0.5,3.9,0.9   c2.8,0.6,5.8,1.3,7.3,1.6c0.8-2.2,1.3-4,1.5-6c0.6-5.4-1.2-8.3-5.6-9c-4-0.6-7.1,1.1-8.2,4.5C74.6,36.8,75.6,40,76.4,42.2z"></path>	</g>	<g id="XMLID_00000068662115828636143890000011794028645126371516_">		<path id="XMLID_00000047759713808666927260000011078069934039050897_" class="st0" d="M88.9,43.1c-0.5-0.2-1.5-0.6-2.7-1.1   c-1.5-0.6-3.2-1.3-4.1-1.7c-0.3-0.1-0.5-0.4-0.5-0.7L81.5,39c-0.1-1.1-0.2-2.1-0.5-4.6c0-0.2,0.1-0.5,0.2-0.7   c0.2-0.2,0.4-0.3,0.6-0.3c1.4,0.1,2.9,0.2,4.5,0.3c1.4,0.1,2.7,0.2,3.6,0.2l-0.1,1.7c-0.9-0.1-2.2-0.1-3.6-0.2   c-1.2-0.1-2.4-0.2-3.5-0.2c0.2,1.8,0.3,2.6,0.4,3.6v0.1c1,0.4,2.4,1,3.7,1.5c1.1,0.5,2.2,0.9,2.6,1.1L88.9,43.1z"></path>	</g>	<g id="XMLID_00000047026158983379665170000005936366115251822996_">		<path id="XMLID_00000021108343596831927840000009199806153640608646_" class="st0" d="M85.7,85.9H51.1c-0.5,0-0.8-0.4-0.8-0.8   v-6.2c0-0.5,0.4-0.8,0.8-0.8h26.4v1.7H51.9v4.5h33.8c1.2,0,2.2-1,2.2-2.2v-1.5h1.7v1.5C89.6,84.2,87.8,85.9,85.7,85.9z"></path>	</g>	<g id="XMLID_00000163071084050401073210000018349206403579767995_">					<rect id="XMLID_00000101063760762384827170000012510644634514872209_" x="77.2" y="62.4" transform="matrix(0.1009 -0.9949 0.9949 0.1009 2.5207 138.7607)" class="st0" width="1.7" height="11.1"></rect>	</g>	<g id="XMLID_00000173153677003895913680000004217935930846922936_">		<path id="XMLID_00000100361562777694166580000008733282269445809592_" class="st0" d="M40.5,91.7H12.4c-0.5,0-0.8-0.4-0.8-0.8   s0.4-0.8,0.8-0.8h28.1c0.5,0,0.8,0.4,0.8,0.8S40.9,91.7,40.5,91.7z"></path>	</g>	<g id="XMLID_00000133505918039097848630000006028191251246565558_">		<path id="XMLID_00000178911154261809823730000008763837584577357990_" class="st0" d="M54.5,101.3H22.7c-0.5,0-0.8-0.4-0.8-0.8   s0.4-0.8,0.8-0.8h31.7c0.5,0,0.8,0.4,0.8,0.8S54.9,101.3,54.5,101.3z"></path>	</g>	<g id="XMLID_00000007423499972357770650000004730457752628311475_">		<path id="XMLID_00000046304865442887711820000002210609572021539509_" class="st0" d="M45,66.9H17.2c-0.5,0-0.8-0.4-0.8-0.8   s0.4-0.8,0.8-0.8H45c0.5,0,0.8,0.4,0.8,0.8S45.4,66.9,45,66.9z"></path>	</g>	<g id="XMLID_00000099652143103093631050000000290904316714459833_">		<path id="XMLID_00000108306439675179079760000009072320172988390279_" class="st0" d="M53.8,73.2H25.3c-0.5,0-0.8-0.4-0.8-0.8   s0.4-0.8,0.8-0.8h28.5c0.5,0,0.8,0.4,0.8,0.8S54.3,73.2,53.8,73.2z"></path>	</g></g></svg>