<svg xmlns="http://www.w3.org/2000/svg" xmlns:xlink="http://www.w3.org/1999/xlink" id="Camada_1" x="0px" y="0px" viewBox="0 0 150 150" style="enable-background:new 0 0 150 150;" xml:space="preserve"><style type="text/css">	.st0{fill:#A01D22;stroke:#A01D22;stroke-width:1.4173;stroke-miterlimit:10;}</style><polygon class="st0" points="62.9,112.2 60.2,112 59.6,122 62.4,122.2 "></polygon><polygon class="st0" points="90.3,112 87.6,112.2 88.1,122.2 90.9,122 "></polygon><path class="st0" d="M134.5,107.9L134.5,107.9c0-1.9-0.5-3.9-1.5-5.8c-1-2-2.7-3.6-4.7-4.4l-7.2-2.9l-6.3,13.2h-1.7l-6.3-13.2 l-7.2,2.9c-1.2,0.5-2.2,1.3-3.1,2.2c0-0.1,0-0.1-0.1-0.2c-1.1-2.2-2.9-3.9-5.1-4.8l-8-3.2l-7,14.8h-2.1l-7-14.8l-8,3.2 c-2.2,0.9-4,2.6-5.1,4.8c0,0.1-0.1,0.1-0.1,0.2c-0.9-1-1.9-1.7-3.1-2.2l-7.2-2.9L37.3,108h-1.7l-6.3-13.2l-7.2,2.9 c-2,0.8-3.6,2.4-4.7,4.4c-1,2-1.5,3.9-1.5,5.7c0,0.1-0.7,7.3-1,14.3l2.8,0.1c0.2-6.9,0.9-14,1-14.3c0-1.7,0.6-3.3,1.1-4.3 c0.7-1.4,1.8-2.4,3.2-3l5-2l5.9,12.5h5l5.9-12.5l5,2c1.2,0.5,2.2,1.4,2.9,2.5c-0.3,1-0.4,2-0.4,2.9c0,0.1-0.8,8.2-1.1,16.1l2.8,0.1 c0.3-7.8,1.1-15.8,1.1-16c0-1.9,0.7-3.7,1.3-4.9c0.8-1.6,2.1-2.8,3.7-3.4l5.7-2.3l6.7,14.1h5.4l6.7-14.1l5.7,2.3 c1.6,0.6,2.9,1.9,3.7,3.4c0.6,1.2,1.3,2.9,1.3,5c0,0.1,0.8,8.1,1.1,15.8l2.8-0.1c-0.3-7.8-1.1-15.9-1.1-15.9l0,0 c0-1-0.1-2.1-0.4-3.1c0.7-1.1,1.7-1.9,2.9-2.4l5-2l5.9,12.5h5l5.9-12.5l5,2c1.4,0.6,2.5,1.6,3.2,3c0.5,1,1.1,2.6,1.1,4.4 c0,0.1,0.7,7.2,0.9,14.1l2.8-0.1C135.3,115.1,134.6,107.9,134.5,107.9z"></path><polygon class="st0" points="124.8,113.3 125.3,122.2 128.1,122 127.6,113.1 "></polygon><polygon class="st0" points="22.4,122 25.1,122.2 25.6,113.3 22.9,113.1 "></polygon><path class="st0" d="M36.4,93.6c5.6,0,10.2-5.2,10.2-11.5c0-4.6-2.4-8.6-5.8-10.4c0.3-4,0.5-6.8,0.6-7c0-1.7,0.6-3.3,1.1-4.3 c0.7-1.4,1.8-2.4,3.2-3l5-2l5.9,12.5h5.7l5.3-12.5l4.9,2c1.2,0.5,2.3,1,3.5,2.2c-0.4,1.4-0.7,3.3-0.9,4.9c-6.2,0-11.2,5.7-11.2,12.7 S69,89.9,75.2,89.9s11.3-5.7,11.3-12.7c0-6-3.7-11-8.6-12.4c0.2-2,0.6-4.1,1-4.7c0.7-1.4,1.8-2.4,3.2-3l5-2l6,12.6h5l6-12.6l5,2 c1.4,0.6,2.5,1.6,3.2,3c0.5,1,1.1,2.6,1.1,4.3v0.3c0,0,0.3,2,0.6,5.8c-0.1,0-0.1,0-0.2,0c-5.6,0-10.2,5.2-10.2,11.5 s4.6,11.5,10.2,11.5S124,88.3,124,82c0-5.2-3-9.6-7.2-11c-0.3-3.9-0.6-6.2-0.7-6.7c0-1.9-0.5-3.8-1.5-5.7c-1-2-2.7-3.6-4.7-4.4 l-7.3-2.9l-6.3,13.3h-1.7l-6.3-13.3L81,54.2c-1.4,0.6-2.6,1.5-3.6,2.7c-1.5-1.3-2.7-1.9-4.1-2.4L66,51.6l-5.6,13.2h-2.1L52,51.6 l-7.2,2.9c-2,0.8-3.6,2.4-4.6,4.4s-1.5,3.9-1.5,5.6c0,0-0.3,2.5-0.5,6.2c-0.5-0.1-1.1-0.2-1.6-0.2c-5.6,0-10.2,5.2-10.2,11.5 S30.8,93.6,36.4,93.6z M121.4,82.1c0,4.6-3.3,8.4-7.4,8.4s-7.4-3.8-7.4-8.4s3.3-8.4,7.4-8.4C118.1,73.6,121.4,77.4,121.4,82.1z  M83.7,77.2c0,5.3-3.8,9.6-8.5,9.6s-8.5-4.3-8.5-9.6c0-5.3,3.8-9.6,8.5-9.6S83.7,71.9,83.7,77.2z M36.4,73.6c4.1,0,7.4,3.8,7.4,8.4 s-3.3,8.4-7.4,8.4S29,86.6,29,82C29,77.4,32.4,73.6,36.4,73.6z"></path><path class="st0" d="M95.7,50c5.7,0,10.2-5.2,10.2-11.6s-4.6-11.6-10.2-11.6c-5.7,0-10.3,5.2-10.3,11.6S90,50,95.7,50z M95.7,29.9 c4.1,0,7.5,3.8,7.5,8.5s-3.4,8.5-7.5,8.5s-7.5-3.8-7.5-8.5S91.5,29.9,95.7,29.9z"></path><path class="st0" d="M59.1,50.4c5.6,0,10.2-5.2,10.2-11.5s-4.5-11.6-10.2-11.6c-5.6,0-10.2,5.2-10.2,11.5S53.5,50.4,59.1,50.4z  M59.1,30.4c4.1,0,7.4,3.8,7.4,8.4s-3.3,8.4-7.4,8.4s-7.4-3.8-7.4-8.4C51.7,34.2,55,30.4,59.1,30.4z"></path></svg>