<svg xmlns="http://www.w3.org/2000/svg" xmlns:xlink="http://www.w3.org/1999/xlink" id="Camada_1" x="0px" y="0px" viewBox="0 0 150 150" style="enable-background:new 0 0 150 150;" xml:space="preserve"><style type="text/css">	.st0{fill:#A01D22;}</style><g>	<g>		<g>			<g>				<g>					<path class="st0" d="M101.5,103H48.4c-1.1,0-2-0.9-2-2V48c0-1.1,0.9-2,2-2h53c1.1,0,2,0.9,2,2v53      C103.4,102.1,102.6,103,101.5,103z M50.4,99.1h49.1V50H50.4V99.1z"></path>				</g>				<g>					<g>						<path class="st0" d="M61.6,50c-1.1,0-2-0.9-2-2V32.8c0-1.1,0.9-2,2-2s2,0.9,2,2V48C63.6,49.1,62.7,50,61.6,50z"></path>					</g>					<g>						<path class="st0" d="M61.6,34.8H51.2c-1.1,0-2-0.9-2-2c0-1.1,0.9-2,2-2h10.5c1.1,0,2,0.9,2,2C63.6,33.9,62.7,34.8,61.6,34.8z"></path>					</g>					<g>						<path class="st0" d="M46,40c-3.9,0-7.1-3.2-7.1-7.1s3.2-7.1,7.1-7.1s7.1,3.2,7.1,7.1S50,40,46,40z M46,29.6       c-1.8,0-3.2,1.4-3.2,3.2c0,1.8,1.4,3.2,3.2,3.2s3.2-1.4,3.2-3.2C49.2,31.1,47.8,29.6,46,29.6z"></path>					</g>				</g>				<g>					<g>						<path class="st0" d="M87.8,50c-1.1,0-2-0.9-2-2V32.8c0-1.1,0.9-2,2-2s2,0.9,2,2V48C89.7,49.1,88.9,50,87.8,50z"></path>					</g>					<g>						<path class="st0" d="M98.2,34.8H87.8c-1.1,0-2-0.9-2-2c0-1.1,0.9-2,2-2h10.5c1.1,0,2,0.9,2,2C100.2,33.9,99.3,34.8,98.2,34.8z       "></path>					</g>					<g>						<path class="st0" d="M103.4,40c-3.9,0-7.1-3.2-7.1-7.1s3.2-7.1,7.1-7.1s7.1,3.2,7.1,7.1S107.3,40,103.4,40z M103.4,29.6       c-1.8,0-3.2,1.4-3.2,3.2c0,1.8,1.4,3.2,3.2,3.2c1.8,0,3.2-1.4,3.2-3.2C106.6,31.1,105.1,29.6,103.4,29.6z"></path>					</g>				</g>				<g>					<g>						<path class="st0" d="M74.7,28.7c-3.9,0-7.1-3.2-7.1-7.1c0-3.9,3.2-7.1,7.1-7.1s7.1,3.2,7.1,7.1S78.6,28.7,74.7,28.7z        M74.7,18.4c-1.8,0-3.2,1.4-3.2,3.2c0,1.8,1.4,3.2,3.2,3.2c1.8,0,3.2-1.4,3.2-3.2S76.5,18.4,74.7,18.4z"></path>					</g>					<g>						<path class="st0" d="M74.7,49c-1.1,0-2-0.9-2-2V26.7c0-1.1,0.9-2,2-2s2,0.9,2,2V47C76.7,48.1,75.8,49,74.7,49z"></path>					</g>				</g>				<g>					<g>						<g>							<path class="st0" d="M48.4,89.6H33.2c-1.1,0-2-0.9-2-2s0.9-2,2-2h15.2c1.1,0,2,0.9,2,2S49.5,89.6,48.4,89.6z"></path>						</g>						<g>							<path class="st0" d="M33.2,100c-1.1,0-2-0.9-2-2V87.5c0-1.1,0.9-2,2-2c1.1,0,2,0.9,2,2V98C35.2,99.2,34.3,100,33.2,100z"></path>						</g>						<g>							<path class="st0" d="M33.2,110.3c-3.9,0-7.1-3.2-7.1-7.1c0-3.9,3.2-7.1,7.1-7.1s7.1,3.2,7.1,7.1        C40.4,107.1,37.2,110.3,33.2,110.3z M33.2,100c-1.8,0-3.2,1.4-3.2,3.2s1.4,3.2,3.2,3.2c1.8,0,3.2-1.4,3.2-3.2        C36.4,101.5,35,100,33.2,100z"></path>						</g>					</g>					<g>						<g>							<path class="st0" d="M48.4,63.4H33.2c-1.1,0-2-0.9-2-2s0.9-2,2-2h15.2c1.1,0,2,0.9,2,2C50.4,62.6,49.5,63.4,48.4,63.4z"></path>						</g>						<g>							<path class="st0" d="M33.2,63.4c-1.1,0-2-0.9-2-2V50.9c0-1.1,0.9-2,2-2c1.1,0,2,0.9,2,2v10.5C35.2,62.6,34.3,63.4,33.2,63.4z        "></path>						</g>						<g>							<path class="st0" d="M33.2,53c-3.9,0-7.1-3.2-7.1-7.1c0-3.9,3.2-7.1,7.1-7.1s7.1,3.2,7.1,7.1C40.4,49.8,37.2,53,33.2,53z         M33.2,42.7c-1.8,0-3.2,1.4-3.2,3.2s1.4,3.2,3.2,3.2c1.8,0,3.2-1.4,3.2-3.2S35,42.7,33.2,42.7z"></path>						</g>					</g>					<g>						<g>							<path class="st0" d="M22,81.7c-3.9,0-7.1-3.2-7.1-7.1c0-3.9,3.2-7.1,7.1-7.1s7.1,3.2,7.1,7.1C29.1,78.5,25.9,81.7,22,81.7z         M22,71.4c-1.8,0-3.2,1.4-3.2,3.2s1.4,3.2,3.2,3.2s3.2-1.4,3.2-3.2S23.7,71.4,22,71.4z"></path>						</g>						<g>							<path class="st0" d="M47.4,76.5H27.1c-1.1,0-2-0.9-2-2s0.9-2,2-2h20.3c1.1,0,2,0.9,2,2S48.5,76.5,47.4,76.5z"></path>						</g>					</g>				</g>				<g>					<g>						<g>							<path class="st0" d="M88,118.2c-1.1,0-2-0.9-2-2V101c0-1.1,0.9-2,2-2s2,0.9,2,2v15.2C90,117.3,89.1,118.2,88,118.2z"></path>						</g>						<g>							<path class="st0" d="M98.5,118.2H88c-1.1,0-2-0.9-2-2s0.9-2,2-2h10.5c1.1,0,2,0.9,2,2C100.5,117.3,99.6,118.2,98.5,118.2z"></path>						</g>						<g>							<path class="st0" d="M103.6,123.4c-3.9,0-7.1-3.2-7.1-7.1c0-3.9,3.2-7.1,7.1-7.1s7.1,3.2,7.1,7.1        C110.8,120.2,107.6,123.4,103.6,123.4z M103.6,113.1c-1.8,0-3.2,1.4-3.2,3.2s1.4,3.2,3.2,3.2s3.2-1.4,3.2-3.2        C106.8,114.5,105.4,113.1,103.6,113.1z"></path>						</g>					</g>					<g>						<g>							<path class="st0" d="M61.9,118.2c-1.1,0-2-0.9-2-2V101c0-1.1,0.9-2,2-2s2,0.9,2,2v15.2C63.9,117.3,63,118.2,61.9,118.2z"></path>						</g>						<g>							<path class="st0" d="M61.9,118.2H51.4c-1.1,0-2-0.9-2-2s0.9-2,2-2h10.5c1.1,0,2,0.9,2,2C63.9,117.3,63,118.2,61.9,118.2z"></path>						</g>						<g>							<path class="st0" d="M46.3,123.4c-3.9,0-7.1-3.2-7.1-7.1c0-3.9,3.2-7.1,7.1-7.1s7.1,3.2,7.1,7.1S50.2,123.4,46.3,123.4z         M46.3,113.1c-1.8,0-3.2,1.4-3.2,3.2s1.4,3.2,3.2,3.2s3.2-1.4,3.2-3.2C49.4,114.5,48,113.1,46.3,113.1z"></path>						</g>					</g>					<g>						<g>							<path class="st0" d="M74.9,134.6c-3.9,0-7.1-3.2-7.1-7.1s3.2-7.1,7.1-7.1s7.1,3.2,7.1,7.1S78.9,134.6,74.9,134.6z         M74.9,124.3c-1.8,0-3.2,1.4-3.2,3.2s1.4,3.2,3.2,3.2c1.8,0,3.2-1.4,3.2-3.2C78.1,125.8,76.7,124.3,74.9,124.3z"></path>						</g>						<g>							<path class="st0" d="M74.9,124.3c-1.1,0-2-0.9-2-2V102c0-1.1,0.9-2,2-2s2,0.9,2,2v20.3C76.9,123.5,76,124.3,74.9,124.3z"></path>						</g>					</g>				</g>				<g>					<g>						<g>							<path class="st0" d="M116.9,63.4h-15.2c-1.1,0-2-0.9-2-2s0.9-2,2-2h15.2c1.1,0,2,0.9,2,2C118.9,62.6,118,63.4,116.9,63.4z"></path>						</g>						<g>							<path class="st0" d="M116.9,63.4c-1.1,0-2-0.9-2-2V50.9c0-1.1,0.9-2,2-2s2,0.9,2,2v10.5C118.9,62.6,118,63.4,116.9,63.4z"></path>						</g>						<g>							<path class="st0" d="M116.9,53c-3.9,0-7.1-3.2-7.1-7.1s3.2-7.1,7.1-7.1s7.1,3.2,7.1,7.1S120.8,53,116.9,53z M116.9,42.7        c-1.8,0-3.2,1.4-3.2,3.2s1.4,3.2,3.2,3.2c1.8,0,3.2-1.4,3.2-3.2S118.6,42.7,116.9,42.7z"></path>						</g>					</g>					<g>						<g>							<path class="st0" d="M116.9,89.6h-15.2c-1.1,0-2-0.9-2-2s0.9-2,2-2h15.2c1.1,0,2,0.9,2,2S118,89.6,116.9,89.6z"></path>						</g>						<g>							<path class="st0" d="M116.9,100c-1.1,0-2-0.9-2-2V87.5c0-1.1,0.9-2,2-2s2,0.9,2,2V98C118.9,99.2,118,100,116.9,100z"></path>						</g>						<g>							<path class="st0" d="M116.9,110.3c-3.9,0-7.1-3.2-7.1-7.1c0-3.9,3.2-7.1,7.1-7.1s7.1,3.2,7.1,7.1S120.8,110.3,116.9,110.3z         M116.9,100c-1.8,0-3.2,1.4-3.2,3.2s1.4,3.2,3.2,3.2c1.8,0,3.2-1.4,3.2-3.2S118.6,100,116.9,100z"></path>						</g>					</g>					<g>						<g>							<path class="st0" d="M128.2,81.7c-3.9,0-7.1-3.2-7.1-7.1c0-3.9,3.2-7.1,7.1-7.1c3.9,0,7.1,3.2,7.1,7.1        C135.3,78.5,132.1,81.7,128.2,81.7z M128.2,71.4c-1.8,0-3.2,1.4-3.2,3.2s1.4,3.2,3.2,3.2c1.8,0,3.2-1.4,3.2-3.2        C131.3,72.8,129.9,71.4,128.2,71.4z"></path>						</g>						<g>							<path class="st0" d="M123,76.5h-20.3c-1.1,0-2-0.9-2-2s0.9-2,2-2H123c1.1,0,2,0.9,2,2C125,75.6,124.1,76.5,123,76.5z"></path>						</g>					</g>				</g>			</g>		</g>		<g>			<path class="st0" d="M90.3,91.5H59.8c-1.1,0-2-0.9-2-2V59c0-1.1,0.9-2,2-2h30.5c1.1,0,2,0.9,2,2v30.5    C92.3,90.6,91.4,91.5,90.3,91.5z M61.8,87.6h26.6V61H61.8V87.6z"></path>		</g>	</g>	<g>		<rect x="87.2" y="51.6" class="st0" width="6.3" height="3.9"></rect>	</g></g></svg>